{
  "accessors": [
    {
      "name": "PUSHILIN_Bullet_Train_Circle.002-Mesh_0_positions",
      "componentType": 5126,
      "count": 1284,
      "min": [
        -2.4857900142669678,
        -0.39927199482917786,
        -0.3961000144481659
      ],
      "max": [
        2.4857900142669678,
        0.39927199482917786,
        0.3961000144481659
      ],
      "type": "VEC3",
      "bufferView": 0,
      "byteOffset": 0
    },
    {
      "name": "PUSHILIN_Bullet_Train_Circle.002-Mesh_0_normals",
      "componentType": 5126,
      "count": 1284,
      "min": [
        -1,
        -1,
        -1
      ],
      "max": [
        1,
        1,
        1
      ],
      "type": "VEC3",
      "bufferView": 1,
      "byteOffset": 0
    },
    {
      "name": "PUSHILIN_Bullet_Train_Circle.002-Mesh_0_texcoords",
      "componentType": 5126,
      "count": 1284,
      "min": [
        0.003800000064074993,
        0.003800000064074993
      ],
      "max": [
        0.9962000250816345,
        0.9962000250816345
      ],
      "type": "VEC2",
      "bufferView": 2,
      "byteOffset": 0
    },
    {
      "name": "PUSHILIN_Bullet_Train_Circle.002-Mesh_0_indices",
      "componentType": 5123,
      "count": 1800,
      "min": [
        0
      ],
      "max": [
        1283
      ],
      "type": "SCALAR",
      "bufferView": 3,
      "byteOffset": 0
    }
  ],
  "asset": {
    "generator": "obj2gltf",
    "version": "2.0"
  },
  "buffers": [
    {
      "name": "Bullettrain",
      "byteLength": 195872,
      "uri": "data:application/octet-stream;base64,"
    }
  ],
  "bufferViews": [
    {
      "name": "bufferView_0",
      "buffer": 0,
      "byteLength": 15408,
      "byteOffset": 0,
      "byteStride": 12,
      "target": 34962
    },
    {
      "name": "bufferView_1",
      "buffer": 0,
      "byteLength": 15408,
      "byteOffset": 15408,
      "byteStride": 12,
      "target": 34962
    },
    {
      "name": "bufferView_2",
      "buffer": 0,
      "byteLength": 10272,
      "byteOffset": 30816,
      "byteStride": 8,
      "target": 34962
    },
    {
      "name": "bufferView_3",
      "buffer": 0,
      "byteLength": 3600,
      "byteOffset": 41088,
      "target": 34963
    },
    {
      "buffer": 0,
      "byteOffset": 44688,
      "byteLength": 151179
    }
  ],
  "images": [
    {
      "name": "PUSHILIN_bullet_train",
      "mimeType": "image/png",
      "bufferView": 4
    }
  ],
  "materials": [
    {
      "name": "Bullet_Train",
      "pbrMetallicRoughness": {
        "baseColorTexture": {
          "index": 0,
          "texCoord": 0
        },
        "baseColorFactor": [
          1,
          1,
          1,
          1
        ],
        "metallicFactor": 0,
        "roughnessFactor": 0.903921569
      },
      "emissiveFactor": [
        0,
        0,
        0
      ],
      "alphaMode": "OPAQUE",
      "doubleSided": false
    }
  ],
  "meshes": [
    {
      "name": "PUSHILIN_Bullet_Train_Circle.002-Mesh",
      "primitives": [
        {
          "attributes": {
            "POSITION": 0,
            "NORMAL": 1,
            "TEXCOORD_0": 2
          },
          "indices": 3,
          "material": 0,
          "mode": 4
        }
      ]
    }
  ],
  "nodes": [
    {
      "name": "PUSHILIN_Bullet_Train_Circle.002",
      "mesh": 0
    }
  ],
  "samplers": [
    {
      "magFilter": 9729,
      "minFilter": 9986,
      "wrapS": 10497,
      "wrapT": 10497
    }
  ],
  "scene": 0,
  "scenes": [
    {
      "nodes": [
        0
      ]
    }
  ],
  "textures": [
    {
      "name": "PUSHILIN_bullet_train",
      "sampler": 0,
      "source": 0
    }
  ]
}
